<?xml version="1.0" standalone="no"?>
<!DOCTYPE svg PUBLIC "-//W3C//DTD SVG 20010904//EN"
 "http://www.w3.org/TR/2001/REC-SVG-20010904/DTD/svg10.dtd">
<svg version="1.0" xmlns="http://www.w3.org/2000/svg"
 width="800.000000pt" height="800.000000pt" viewBox="0 0 800.000000 800.000000"
 preserveAspectRatio="xMidYMid meet">
<metadata>
Created by potrace 1.11, written by Peter Selinger 2001-2013
</metadata>
<g transform="translate(0.000000,800.000000) scale(0.100000,-0.100000)"
fill="#000000" stroke="none">
<path d="M2381 5709 c-78 -15 -72 66 -68 -893 4 -941 2 -909 64 -1064 77 -194
191 -321 368 -407 163 -80 353 -111 566 -94 435 35 709 265 802 674 20 86 21
127 24 904 2 448 2 825 -1 837 -9 34 -60 49 -168 48 -72 0 -102 -5 -121 -17
l-26 -17 -3 -827 c-4 -816 -5 -829 -26 -908 -58 -212 -165 -332 -350 -393 -67
-22 -95 -25 -212 -26 -103 -1 -149 4 -194 18 -229 69 -356 228 -395 493 -7 46
-11 353 -11 851 0 607 -3 782 -12 795 -23 31 -145 44 -237 26z"/>
<path d="M4581 3501 c-7 -5 -22 -6 -32 -4 -18 5 -19 -1 -19 -81 0 -70 3 -86
15 -86 12 0 15 13 15 58 0 46 4 63 19 76 11 10 25 15 31 11 8 -5 11 -1 8 10
-4 22 -18 28 -37 16z"/>
<path d="M4673 3500 c-36 -15 -27 -27 20 -26 36 1 42 -2 45 -21 3 -19 -1 -23
-25 -23 -38 0 -73 -26 -73 -54 0 -31 18 -46 55 -46 17 0 36 5 43 12 9 9 12 9
12 0 0 -7 5 -12 10 -12 15 0 13 145 -3 158 -19 16 -60 22 -84 12z m67 -114 c0
-26 -23 -40 -51 -31 -37 12 -14 55 28 55 18 0 23 -6 23 -24z"/>
<path d="M4882 3494 c-12 -8 -22 -10 -22 -5 0 6 -7 11 -15 11 -12 0 -15 -16
-15 -85 0 -69 3 -85 15 -85 12 0 15 13 15 59 0 41 5 65 16 75 38 39 64 10 64
-71 0 -49 3 -63 15 -63 12 0 15 14 15 68 0 39 -5 75 -12 84 -20 25 -51 30 -76
12z"/>
<path d="M5094 3445 c-7 -18 12 -45 32 -45 16 0 33 30 27 48 -7 17 -52 15 -59
-3z"/>
<path d="M5100 3201 l0 -151 25 0 26 0 -3 148 c-3 144 -3 147 -25 150 -23 3
-23 3 -23 -147z"/>
<path d="M5247 3344 c-11 -11 -8 -184 3 -225 6 -20 19 -44 30 -54 28 -25 91
-23 129 4 l31 22 0 -21 c0 -16 5 -21 23 -18 22 3 22 5 22 148 l0 145 -25 0
c-25 0 -25 0 -28 -107 -3 -102 -4 -108 -29 -128 -32 -25 -65 -26 -86 -2 -12
14 -17 43 -19 127 -3 102 -4 110 -23 113 -12 2 -24 0 -28 -4z"/>
<path d="M5580 3200 l0 -150 25 0 25 0 0 104 c0 104 0 104 31 130 35 30 47 32
75 12 16 -12 20 -30 24 -128 5 -113 5 -113 30 -113 25 0 25 1 30 108 5 101 7
110 30 127 31 25 42 25 71 1 22 -17 24 -28 27 -130 4 -109 5 -111 28 -111 24
0 24 1 24 105 0 149 -23 195 -97 195 -16 0 -44 -10 -62 -23 l-34 -23 -23 23
c-29 29 -85 31 -124 3 -28 -20 -28 -20 -33 0 -3 12 -14 20 -26 20 -20 0 -21
-4 -21 -150z"/>
</g>
</svg>
